HIERARCHY
ROOT Hips
{
	OFFSET 0.000000 35.082581 0.000000
	CHANNELS 6 Xposition Yposition Zposition Xrotation Yrotation Zrotation 
	JOINT Spine
	{
		OFFSET 0.000000 6.876099 0.125700
		CHANNELS 3 Xrotation Yrotation Zrotation
		JOINT Spine1
		{
			OFFSET 0.000000 5.730043 0.104720
			CHANNELS 3 Xrotation Yrotation Zrotation
			JOINT Spine1_split
			{
				OFFSET 0.000000 5.730043 0.104720
				CHANNELS 3 Xrotation Yrotation Zrotation
				JOINT Spine2
				{
					OFFSET 0.000000 5.730043 0.104720
					CHANNELS 3 Xrotation Yrotation Zrotation
					JOINT Neck
					{
						OFFSET 0.000000 10.314075 0.188496
						CHANNELS 3 Xrotation Yrotation Zrotation
						JOINT Head
						{
							OFFSET 0.000000 7.643700 -2.377400
							CHANNELS 3 Xrotation Yrotation Zrotation
							JOINT HeadTop_End
							{
								OFFSET 0.000000 43.788605 -13.619600
								CHANNELS 3 Xrotation Yrotation Zrotation
								End Site
								{
									OFFSET 0.000000 0.000000 0.000000
								}
							}
						}
					}
					JOINT LeftShoulder
					{
						OFFSET 2.196100 4.412489 0.087492
						CHANNELS 3 Xrotation Yrotation Zrotation
						JOINT LeftShoulder_split
						{
							OFFSET 2.196100 4.412489 0.087492
							CHANNELS 3 Xrotation Yrotation Zrotation
							JOINT LeftArm
							{
								OFFSET 8.771219 -2.981674 -0.026999
								CHANNELS 3 Xrotation Yrotation Zrotation
								JOINT LeftForeArm
								{
									OFFSET 8.512804 0.000000 -0.000000
									CHANNELS 3 Xrotation Yrotation Zrotation
									JOINT LeftHand
									{
										OFFSET 18.484802 0.000000 -0.000000
										CHANNELS 3 Xrotation Yrotation Zrotation
										JOINT LeftHandThumb1
										{
											OFFSET 2.499420 -1.158070 2.653252
											CHANNELS 3 Xrotation Yrotation Zrotation
											JOINT LeftHandThumb2
											{
												OFFSET 2.370079 -1.368366 1.368366
												CHANNELS 3 Xrotation Yrotation Zrotation
												JOINT LeftHandThumb3
												{
													OFFSET 2.676727 -1.545410 1.545409
													CHANNELS 3 Xrotation Yrotation Zrotation
													JOINT LeftHandThumb4
													{
														OFFSET 1.692226 -0.977005 0.977007
														CHANNELS 3 Xrotation Yrotation Zrotation
														End Site
														{
															OFFSET 0.000000 0.000000 0.000000
														}
													}
												}
											}
										}
										JOINT LeftHandIndex1
										{
											OFFSET 7.924831 -0.457527 2.345128
											CHANNELS 3 Xrotation Yrotation Zrotation
											JOINT LeftHandIndex2
											{
												OFFSET 3.643303 0.000000 0.000000
												CHANNELS 3 Xrotation Yrotation Zrotation
												JOINT LeftHandIndex3
												{
													OFFSET 3.810799 0.000000 0.000000
													CHANNELS 3 Xrotation Yrotation Zrotation
													JOINT LeftHandIndex4
													{
														OFFSET 2.403702 0.000000 0.000000
														CHANNELS 3 Xrotation Yrotation Zrotation
														End Site
														{
															OFFSET 0.000000 0.000000 0.000000
														}
													}
												}
											}
										}
										JOINT LeftHandMiddle1
										{
											OFFSET 8.563995 0.000000 -0.000000
											CHANNELS 3 Xrotation Yrotation Zrotation
											JOINT LeftHandMiddle2
											{
												OFFSET 3.861618 0.000000 0.000000
												CHANNELS 3 Xrotation Yrotation Zrotation
												JOINT LeftHandMiddle3
												{
													OFFSET 3.701603 0.000000 0.000000
													CHANNELS 3 Xrotation Yrotation Zrotation
													JOINT LeftHandMiddle4
													{
														OFFSET 2.322544 0.000000 0.000000
														CHANNELS 3 Xrotation Yrotation Zrotation
														End Site
														{
															OFFSET 0.000000 0.000000 0.000000
														}
													}
												}
											}
										}
										JOINT LeftHandRing1
										{
											OFFSET 8.426460 -0.424637 -3.286992
											CHANNELS 3 Xrotation Yrotation Zrotation
											JOINT LeftHandRing2
											{
												OFFSET 3.126408 0.000000 0.000000
												CHANNELS 3 Xrotation Yrotation Zrotation
												JOINT LeftHandRing3
												{
													OFFSET 3.085026 0.000000 0.000000
													CHANNELS 3 Xrotation Yrotation Zrotation
													JOINT LeftHandRing4
													{
														OFFSET 1.644005 0.000000 0.000000
														CHANNELS 3 Xrotation Yrotation Zrotation
														End Site
														{
															OFFSET 0.000000 0.000000 0.000000
														}
													}
												}
											}
										}
									}
								}
							}
						}
					}
					JOINT RightShoulder
					{
						OFFSET -2.196100 4.412496 0.070690
						CHANNELS 3 Xrotation Yrotation Zrotation
						JOINT RightShoulder_split
						{
							OFFSET -2.196100 4.412496 0.070690
							CHANNELS 3 Xrotation Yrotation Zrotation
							JOINT RightArm
							{
								OFFSET -8.771282 -2.981682 -0.094208
								CHANNELS 3 Xrotation Yrotation Zrotation
								JOINT RightForeArm
								{
									OFFSET -8.494598 0.000000 0.000000
									CHANNELS 3 Xrotation Yrotation Zrotation
									JOINT RightHand
									{
										OFFSET -18.483803 0.000000 0.000001
										CHANNELS 3 Xrotation Yrotation Zrotation
										JOINT RightHandThumb1
										{
											OFFSET -2.527351 -1.008072 2.575253
											CHANNELS 3 Xrotation Yrotation Zrotation
											JOINT RightHandThumb2
											{
												OFFSET -2.321518 -1.340328 1.340329
												CHANNELS 3 Xrotation Yrotation Zrotation
												JOINT RightHandThumb3
												{
													OFFSET -2.657753 -1.534454 1.534455
													CHANNELS 3 Xrotation Yrotation Zrotation
													JOINT RightHandThumb4
													{
														OFFSET -1.807510 -1.043568 1.043567
														CHANNELS 3 Xrotation Yrotation Zrotation
														End Site
														{
															OFFSET 0.000000 0.000000 0.000000
														}
													}
												}
											}
										}
										JOINT RightHandIndex1
										{
											OFFSET -8.811420 0.015533 2.887987
											CHANNELS 3 Xrotation Yrotation Zrotation
											JOINT RightHandIndex2
											{
												OFFSET -3.537502 0.000000 0.000000
												CHANNELS 3 Xrotation Yrotation Zrotation
												JOINT RightHandIndex3
												{
													OFFSET -3.356201 0.000000 0.000000
													CHANNELS 3 Xrotation Yrotation Zrotation
													JOINT RightHandIndex4
													{
														OFFSET -1.933098 0.000000 0.000000
														CHANNELS 3 Xrotation Yrotation Zrotation
														End Site
														{
															OFFSET 0.000000 0.000000 0.000000
														}
													}
												}
											}
										}
										JOINT RightHandMiddle1
										{
											OFFSET -8.178135 0.000000 0.000000
											CHANNELS 3 Xrotation Yrotation Zrotation
											JOINT RightHandMiddle2
											{
												OFFSET -3.901302 0.000000 0.000000
												CHANNELS 3 Xrotation Yrotation Zrotation
												JOINT RightHandMiddle3
												{
													OFFSET -3.909599 0.000000 0.000000
													CHANNELS 3 Xrotation Yrotation Zrotation
													JOINT RightHandMiddle4
													{
														OFFSET -2.376003 0.000000 0.000000
														CHANNELS 3 Xrotation Yrotation Zrotation
														End Site
														{
															OFFSET 0.000000 0.000000 0.000000
														}
													}
												}
											}
										}
										JOINT RightHandRing1
										{
											OFFSET -7.559013 0.014137 -2.865403
											CHANNELS 3 Xrotation Yrotation Zrotation
											JOINT RightHandRing2
											{
												OFFSET -3.449306 0.000000 0.000000
												CHANNELS 3 Xrotation Yrotation Zrotation
												JOINT RightHandRing3
												{
													OFFSET -3.362106 0.000000 0.000000
													CHANNELS 3 Xrotation Yrotation Zrotation
													JOINT RightHandRing4
													{
														OFFSET -2.076401 0.000000 0.000000
														CHANNELS 3 Xrotation Yrotation Zrotation
														End Site
														{
															OFFSET 0.000000 0.000000 0.000000
														}
													}
												}
											}
										}
									}
								}
							}
						}
					}
				}
			}
		}
	}
	JOINT LeftUpLeg
	{
		OFFSET 10.205400 -3.823500 0.155100
		CHANNELS 3 Xrotation Yrotation Zrotation
		JOINT LeftLeg
		{
			OFFSET 0.708757 -12.982077 0.567790
			CHANNELS 3 Xrotation Yrotation Zrotation
			JOINT LeftFoot
			{
				OFFSET -0.708756 -10.717838 -2.184338
				CHANNELS 3 Xrotation Yrotation Zrotation
				JOINT LeftToeBase
				{
					OFFSET 0.108149 -7.191104 7.560241
					CHANNELS 3 Xrotation Yrotation Zrotation
					JOINT LeftToe_End
					{
						OFFSET 0.070230 0.081724 4.490308
						CHANNELS 3 Xrotation Yrotation Zrotation
						End Site
						{
							OFFSET 0.000000 0.000000 0.000000
						}
					}
				}
			}
		}
	}
	JOINT RightUpLeg
	{
		OFFSET -10.205400 -3.823500 0.005500
		CHANNELS 3 Xrotation Yrotation Zrotation
		JOINT RightLeg
		{
			OFFSET -0.708756 -12.982134 0.610632
			CHANNELS 3 Xrotation Yrotation Zrotation
			JOINT RightFoot
			{
				OFFSET 0.708754 -10.717769 -1.945823
				CHANNELS 3 Xrotation Yrotation Zrotation
				JOINT RightToeBase
				{
					OFFSET -0.108140 -7.191069 7.372968
					CHANNELS 3 Xrotation Yrotation Zrotation
					JOINT RightToe_End
					{
						OFFSET -0.070227 0.081735 4.479403
						CHANNELS 3 Xrotation Yrotation Zrotation
						End Site
						{
							OFFSET 0.000000 0.000000 0.000000
						}
					}
				}
			}
		}
	}
}
MOTION
Frames: 5
Frame Time: 0.016667
84.836433 13.690798 -16.492716 54.499814 205.709657 230.712042 12.091248 3.096587 1.811492 24.200982 5.707160 2.256768 0.000000 0.000000 0.000000 24.200984 5.707166 2.256775 56.768120 -4.709007 -18.365632 -27.541973 -9.260008 20.113299 -0.000001 -0.000002 0.000001 0.826491 4.176656 27.061216 0.000000 0.000000 0.000000 -21.500742 -16.600696 -7.566951 0.248537 -108.744760 0.234060 -1.960182 7.066432 19.245257 -3.269891 -2.950329 2.445911 6.363630 5.687399 -6.261551 -0.000002 -0.000009 -0.000012 -0.000004 -0.000000 -0.000002 -2.181517 1.448988 -9.293705 0.033619 0.552089 -14.681526 0.000000 -0.000000 -0.000002 0.000000 0.000001 0.000002 -0.369310 0.913329 -21.544724 -0.502621 -1.800282 -26.483416 -0.000001 0.000001 -0.000001 0.000001 -0.000001 0.000002 -0.931039 3.368099 -28.899183 -0.351977 -2.121507 -21.850800 -0.000003 0.000009 0.000002 -0.000001 -0.000001 0.000002 2.759741 8.250650 -10.588883 0.000000 0.000000 0.000000 -57.649044 -5.834119 42.145371 0.058545 119.763378 -0.066474 30.555087 10.082309 -24.848689 6.507442 5.944002 -8.205806 0.308335 -2.673176 -2.026414 -0.000012 0.000003 -0.000000 -0.000004 -0.000003 -0.000001 -3.218600 0.338189 -13.313594 0.023734 0.208821 -0.000003 0.000000 0.000000 0.000000 0.000001 0.000001 0.000001 -2.741301 -2.097324 -13.344325 0.039702 -0.113988 0.011393 0.000000 0.000006 -0.000002 0.000000 -0.000001 -0.000006 -2.221641 -6.757293 -8.023608 -0.013515 0.271971 0.000002 0.000003 0.000003 -0.000004 -0.000001 0.000000 -0.000001 -44.572636 13.897441 -7.233508 117.273419 -2.260450 -3.269349 -38.338238 -1.648239 -3.304789 2.062849 1.449607 -1.075909 -0.000001 0.000001 -0.000002 -108.674949 -13.316488 7.721689 91.239245 -5.415502 1.066313 -10.877344 3.065372 11.294542 -0.012211 -0.109727 0.262111 0.000002 0.000000 0.000004 
86.833481 12.431570 -16.407024 55.173162 200.392040 235.119481 12.087511 3.304348 2.303467 24.205449 6.078917 2.810433 0.000000 0.000000 0.000000 24.205475 6.078906 2.810434 57.480379 -3.925623 -18.447419 -25.082709 -8.467456 21.826278 -0.000001 -0.000001 -0.000000 0.899518 3.368689 24.482630 0.000000 0.000000 0.000000 -14.606296 -19.867045 -3.868292 0.354948 -104.424358 0.338102 -4.669632 6.592311 21.857637 -3.133896 -3.128529 2.072180 6.459722 5.436984 -6.660185 -0.000006 -0.000012 -0.000013 -0.000001 -0.000000 -0.000004 -2.376743 1.613016 -8.894075 0.030283 0.533001 -14.400267 0.000000 0.000000 -0.000003 0.000000 -0.000001 -0.000001 -0.361512 0.964849 -21.923710 -0.516454 -1.835406 -26.743249 -0.000003 0.000004 -0.000004 0.000001 -0.000001 0.000002 -0.959567 3.242988 -28.884245 -0.358831 -2.130781 -22.188218 -0.000007 0.000008 -0.000000 0.000001 -0.000002 0.000001 3.074227 7.560847 -12.803208 0.000000 0.000000 0.000000 -40.315458 -8.927975 48.040118 0.085584 116.790661 -0.090148 40.428593 7.346917 -27.686401 9.080928 6.991066 -6.854945 -0.534570 -0.974998 -1.909474 -0.000008 -0.000002 -0.000004 0.000003 0.000000 -0.000000 -4.050269 -0.157108 -12.989668 0.010746 0.010874 -0.000038 0.000003 0.000000 0.000002 0.000003 0.000001 0.000003 -3.380168 -2.013616 -16.151147 0.066079 -0.021684 0.003134 0.000004 0.000005 -0.000003 -0.000003 -0.000000 -0.000002 -4.069080 -5.491783 -3.840701 0.001721 0.401747 0.000040 0.000003 0.000005 -0.000002 -0.000000 -0.000001 -0.000003 -42.366120 13.340708 -7.793908 116.494177 -0.734123 -3.050744 -35.154806 -2.935551 -5.698662 2.940319 1.444437 -1.088155 -0.000000 -0.000001 -0.000001 -103.152065 -15.886574 9.006103 92.923255 -6.392963 0.800415 -14.451236 2.699446 9.156092 -0.012183 -0.109717 0.262124 -0.000001 -0.000001 -0.000002 
88.583221 11.157639 -16.418745 55.198843 194.818715 239.798489 12.021041 3.374892 2.689983 24.076777 6.263980 3.298516 0.000000 0.000000 0.000000 24.076779 6.263981 3.298504 58.211844 -3.060423 -17.835296 -23.111414 -7.490899 22.712633 -0.000001 -0.000003 -0.000001 1.106685 2.229520 21.865794 0.000000 0.000000 0.000000 -8.044704 -21.912751 0.331386 0.504300 -100.515543 0.483734 -7.464031 4.378057 27.133087 -3.030179 -3.261354 1.789461 6.532174 5.246521 -6.961251 -0.000010 -0.000009 -0.000016 -0.000002 0.000001 0.000002 -2.566446 1.768169 -8.498504 0.026914 0.514265 -14.103373 0.000003 0.000001 0.000001 0.000000 -0.000000 -0.000000 -0.349294 1.015432 -22.255704 -0.529867 -1.867087 -26.970414 -0.000002 0.000004 -0.000004 0.000000 0.000001 0.000000 -1.000520 3.115067 -28.867702 -0.363708 -2.137674 -22.483350 -0.000003 0.000008 -0.000001 -0.000001 0.000000 -0.000001 3.006498 6.979983 -13.209484 0.000000 0.000000 0.000000 -24.883253 -9.196751 51.059325 0.144260 108.653488 -0.132409 49.791615 0.108392 -33.736490 11.232863 7.962252 -5.436336 -0.991350 -0.153153 -1.907240 -0.000009 0.000003 -0.000006 -0.000001 -0.000000 0.000001 -4.856092 -0.741981 -11.696885 -0.000007 -0.423352 0.042114 0.000003 0.000002 0.000001 -0.000000 0.000001 0.000001 -4.002453 -1.861611 -17.305951 0.077290 0.012088 0.000117 0.000005 0.000006 -0.000002 0.000001 -0.000000 -0.000000 -6.095264 -4.440951 1.307410 -0.008292 0.878749 3.650594 0.000001 0.000008 0.000000 -0.000000 0.000001 0.000002 -41.323157 13.441635 -8.706551 116.003427 1.352153 -2.687053 -31.304700 -3.410778 -6.977631 3.049614 1.003072 -0.719886 -0.000001 0.000001 0.000001 -96.968728 -16.976811 9.683343 93.473707 -6.841818 0.681205 -18.224398 2.371360 7.338728 -0.012197 -0.109708 0.262108 0.000002 0.000002 0.000001 
90.047218 9.871147 -16.564186 54.680906 188.733358 244.889357 11.838997 3.308940 2.885972 23.705763 6.193832 3.640059 0.000000 0.000000 0.000000 23.705765 6.193826 3.640059 58.660267 -2.363930 -16.804094 -22.201535 -6.647933 22.500071 -0.000000 -0.000000 -0.000001 1.311809 1.043503 19.573430 0.000000 0.000000 0.000000 -2.184765 -21.315405 2.321633 0.553314 -99.110403 0.528898 -7.420668 0.340499 36.334800 -1.617123 -3.443772 1.781893 6.670558 5.016645 -7.429574 -0.000006 -0.000013 -0.000014 -0.000000 0.000003 -0.000002 -2.740600 1.901291 -8.112371 0.023669 0.496720 -13.783377 -0.000000 0.000005 -0.000004 -0.000001 -0.000002 0.000002 -0.335100 1.060541 -22.530888 -0.542016 -1.893756 -27.158422 -0.000002 0.000005 -0.000005 -0.000001 0.000001 -0.000003 -1.054374 2.979447 -28.849162 -0.366848 -2.142718 -22.727697 -0.000005 0.000011 -0.000002 0.000001 0.000001 0.000000 2.058704 6.641530 -9.781913 0.000000 0.000000 0.000000 -17.790266 -3.547548 48.458690 0.546566 93.753581 -0.517629 44.210920 -8.940491 -42.468965 12.926564 8.813802 -4.083792 -1.071281 -0.171220 -2.021265 -0.000012 -0.000002 -0.000001 -0.000001 0.000001 0.000002 -5.540328 -1.397988 -9.917181 0.014415 -0.663865 4.500998 0.000004 -0.000003 -0.000000 0.000001 0.000003 -0.000001 -4.569650 -1.700313 -16.210593 0.061353 -0.036733 0.004478 0.000002 0.000005 -0.000005 -0.000001 0.000004 -0.000002 -8.208141 -3.920795 6.976351 -0.122024 1.728496 11.591776 0.000003 0.000001 0.000000 0.000001 -0.000000 0.000001 -42.214264 14.592426 -9.968221 115.674882 4.008134 -2.169860 -26.020374 -2.267685 -6.008628 0.167568 0.148676 -0.044663 0.000001 -0.000000 -0.000005 -91.495882 -16.212945 9.298359 92.936943 -6.700487 0.715509 -21.425357 2.400315 6.222568 -0.012184 -0.109711 0.262129 -0.000000 -0.000003 -0.000002 
91.208855 8.851624 -16.797489 53.640204 182.507190 250.399134 11.594170 3.166989 2.880106 23.202416 6.009134 3.780233 0.000000 0.000000 0.000000 23.202426 6.009111 3.780214 59.079757 -1.919152 -15.677919 -22.416066 -6.248909 21.959687 -0.000000 -0.000001 0.000000 1.507308 -0.163525 17.453333 0.000000 0.000000 0.000000 3.550716 -20.408009 2.406272 0.554033 -97.715992 0.525564 -5.890167 -2.890350 45.326672 -2.940799 -3.372802 1.547790 6.593738 5.083140 -7.218143 -0.000002 -0.000015 -0.000012 -0.000000 0.000001 0.000005 -2.919271 2.045310 -7.736700 0.020041 0.478063 -13.432708 0.000003 -0.000001 -0.000001 0.000002 0.000003 -0.000004 -0.310787 1.112139 -22.741125 -0.554294 -1.917299 -27.300519 -0.000004 0.000003 -0.000005 -0.000001 -0.000001 -0.000001 -1.127508 2.843602 -28.828842 -0.366370 -2.142764 -22.912997 -0.000006 0.000006 0.000001 -0.000001 -0.000000 -0.000002 0.825808 6.417772 -5.156937 0.000000 0.000000 0.000000 -13.761714 2.862437 43.332438 -0.079303 78.665051 0.117652 33.684843 -16.385853 -50.901336 14.148093 9.491836 -2.937721 -1.139212 -0.187472 -2.112722 -0.000009 -0.000002 -0.000003 -0.000000 0.000001 0.000002 -6.049919 -2.044534 -7.737813 0.054025 -0.889725 10.547826 0.000002 -0.000001 0.000000 -0.000000 0.000001 -0.000000 -5.030700 -1.571716 -13.469551 0.030795 -0.151129 0.014729 0.000001 0.000003 -0.000003 0.000000 0.000002 -0.000001 -10.124613 -3.784061 12.664125 -0.352232 2.554366 19.538994 0.000004 0.000005 -0.000002 -0.000001 -0.000000 0.000003 -43.877661 17.418890 -11.562808 115.511599 7.100635 -1.539822 -20.888037 0.527918 -3.140437 -2.941623 -0.775916 0.547664 -0.000000 -0.000002 0.000006 -86.426188 -14.397530 8.298870 91.480152 -6.207399 0.871365 -24.059509 2.637738 5.549305 -0.012193 -0.109737 0.262127 -0.000001 0.000001 -0.000001 
